HIERARCHY
ROOT Pelvis
{
	OFFSET 0.000000 0.000000 0.000000
	CHANNELS 6 Xposition Yposition Zposition Zrotation Yrotation Xrotation 
	JOINT Left_hip
	{
		OFFSET 0.069463 -0.088608 -0.009542
		CHANNELS 3 Zrotation Yrotation Xrotation
		JOINT Left_knee
		{
			OFFSET 0.030639 -0.359740 -0.005288
			CHANNELS 3 Zrotation Yrotation Xrotation
			JOINT Left_ankle
			{
				OFFSET -0.011068 -0.376034 -0.042462
				CHANNELS 3 Zrotation Yrotation Xrotation
				JOINT Left_foot
				{
					OFFSET 0.023192 -0.053321 0.111332
					CHANNELS 3 Zrotation Yrotation Xrotation
					End Site
					{
						OFFSET 0.000000 0.000000 0.000000
					}
				}
			}
		}
	}
	JOINT Right_hip
	{
		OFFSET -0.067438 -0.088025 -0.006263
		CHANNELS 3 Zrotation Yrotation Xrotation
		JOINT Right_knee
		{
			OFFSET -0.035962 -0.366229 -0.008063
			CHANNELS 3 Zrotation Yrotation Xrotation
			JOINT Right_ankle
			{
				OFFSET 0.013608 -0.375719 -0.040481
				CHANNELS 3 Zrotation Yrotation Xrotation
				JOINT Right_foot
				{
					OFFSET -0.021034 -0.045527 0.114617
					CHANNELS 3 Zrotation Yrotation Xrotation
					End Site
					{
						OFFSET 0.000000 0.000000 0.000000
					}
				}
			}
		}
	}
	JOINT Spine1
	{
		OFFSET -0.002610 0.101823 -0.019986
		CHANNELS 3 Zrotation Yrotation Xrotation
		JOINT Spine2
		{
			OFFSET 0.004114 0.128714 -0.000938
			CHANNELS 3 Zrotation Yrotation Xrotation
			JOINT Spine3
			{
				OFFSET 0.002191 0.048470 0.027684
				CHANNELS 3 Zrotation Yrotation Xrotation
				JOINT Neck
				{
					OFFSET -0.002856 0.198873 -0.044022
					CHANNELS 3 Zrotation Yrotation Xrotation
					JOINT Head
					{
						OFFSET 0.002981 0.062960 0.049860
						CHANNELS 3 Zrotation Yrotation Xrotation
						End Site
						{
							OFFSET 0.000000 0.000000 0.000000
						}
					}
				}
				JOINT Left_collar
				{
					OFFSET 0.073708 0.112550 -0.033440
					CHANNELS 3 Zrotation Yrotation Xrotation
					JOINT Left_shoulder
					{
						OFFSET 0.083291 0.030786 -0.008013
						CHANNELS 3 Zrotation Yrotation Xrotation
						JOINT Left_elbow
						{
							OFFSET 0.245601 -0.011792 -0.027873
							CHANNELS 3 Zrotation Yrotation Xrotation
							JOINT Left_wrist
							{
								OFFSET 0.232258 0.008622 -0.000487
								CHANNELS 3 Zrotation Yrotation Xrotation
								JOINT Left_palm
								{
									OFFSET 0.077300 -0.009457 -0.012851
									CHANNELS 3 Zrotation Yrotation Xrotation
									End Site
									{
										OFFSET 0.000000 0.000000 0.000000
									}
								}
							}
						}
					}
				}
				JOINT Right_collar
				{
					OFFSET -0.075339 0.110574 -0.037874
					CHANNELS 3 Zrotation Yrotation Xrotation
					JOINT Right_shoulder
					{
						OFFSET -0.086522 0.031207 -0.009986
						CHANNELS 3 Zrotation Yrotation Xrotation
						JOINT Right_elbow
						{
							OFFSET -0.237313 -0.011478 -0.019859
							CHANNELS 3 Zrotation Yrotation Xrotation
							JOINT Right_wrist
							{
								OFFSET -0.237599 0.007976 -0.003742
								CHANNELS 3 Zrotation Yrotation Xrotation
								JOINT Right_palm
								{
									OFFSET -0.076920 -0.006943 -0.009920
									CHANNELS 3 Zrotation Yrotation Xrotation
									End Site
									{
										OFFSET 0.000000 0.000000 0.000000
									}
								}
							}
						}
					}
				}
			}
		}
	}
}
MOTION
Frames: 9
Frame Time: 0.100000
-0.066063 0.568813 -1.563687 176.299443 19.594497 -62.823432 -13.039051 -10.090508 -41.882117 4.203424 20.671151 86.840035 1.294081 -4.804946 22.541937 -23.006661 18.162371 -18.297190 13.254519 10.363302 -13.989110 -5.325926 -10.850298 59.640187 -11.060769 15.087804 7.794057 32.022550 -21.551597 -8.060701 4.037401 1.230008 61.320943 2.347599 -8.317625 8.526297 2.711258 -0.982585 -8.971933 2.295993 -23.571754 -2.183034 15.451424 -19.267684 -24.224539 -25.484112 -39.576724 5.790400 -52.525611 -18.546074 17.509482 31.637061 -54.932511 5.862065 -5.727850 -2.522236 40.054104 -10.858349 0.097505 -28.605295 5.073978 42.689353 -9.476216 62.958355 25.674434 22.987296 -158.845334 40.670555 -127.525709 -6.082230 5.594582 -34.767076 8.228586 7.470125 -0.720572 
-0.071776 0.571233 -1.571363 175.889901 19.271838 -63.215692 -14.026652 -10.707834 -42.096594 4.341142 19.744149 87.024803 1.120329 -4.358615 23.715687 -23.057108 18.450875 -18.620161 13.179213 10.210079 -13.893069 -5.340417 -11.116632 59.733687 -11.117355 15.334140 8.161179 32.367034 -21.893841 -7.965820 4.252443 1.052854 61.251460 2.589739 -8.627137 8.605102 2.930177 -1.079736 -8.986545 3.484248 -24.332574 -2.868022 16.467589 -19.453988 -25.547811 -25.351294 -40.029120 5.889684 -52.376275 -18.723871 17.389828 32.269603 -53.849193 4.968921 -5.910170 -2.291427 39.781135 -10.684279 0.546058 -28.625481 3.945382 43.101826 -10.551586 62.922248 26.685031 22.847328 -157.838188 40.229128 -127.253191 -5.697527 5.717178 -37.048900 7.660248 7.072490 -0.105070 
-0.073109 0.571788 -1.572516 174.867973 19.369484 -64.709544 -14.543198 -9.768512 -40.535625 4.334943 20.175226 86.599581 1.031084 -4.154856 23.339752 -22.988682 18.889423 -18.328962 13.394581 9.566351 -12.561520 -5.129906 -11.702976 59.271486 -11.193342 15.230457 8.160122 32.630555 -21.498341 -7.872874 4.315115 0.958031 61.417638 2.841416 -8.930477 9.622216 3.195115 -1.182170 -9.013025 4.151637 -24.374743 -2.814190 16.639970 -19.627305 -26.008914 -25.134326 -40.463391 5.992806 -51.589442 -18.671508 16.658629 32.615002 -53.419349 4.204093 -5.857824 -2.230377 39.973331 -10.407520 0.656864 -28.878131 3.450388 43.608152 -11.108906 62.532320 27.384129 22.545052 -157.057026 40.294073 -127.163520 -5.709661 5.463994 -37.264717 7.669078 7.004968 -0.084198 
-0.074252 0.572588 -1.573658 174.131484 19.323742 -65.335696 -14.771939 -8.881129 -39.859417 4.347929 20.878413 86.178645 0.927766 -4.161471 23.287472 -23.093858 19.063976 -18.387764 13.379696 9.060982 -12.111650 -4.934567 -12.158403 58.999248 -11.258826 15.419568 7.916532 32.859154 -21.304436 -7.907677 4.341615 0.876517 61.513045 2.932014 -9.037963 10.003722 3.284066 -1.268683 -8.984906 4.298518 -24.283518 -2.395504 16.519720 -19.688258 -25.770296 -25.014122 -40.308244 5.940251 -51.180743 -18.680987 16.170480 32.756143 -53.302229 3.792709 -5.816572 -2.348757 40.063543 -10.292666 0.724485 -28.870606 3.556460 43.476340 -11.062924 62.386846 27.462531 22.313590 -156.711265 40.519690 -127.187807 -5.814181 5.431775 -37.296811 7.756472 6.996735 0.005581 
-0.076390 0.572714 -1.572715 173.546797 19.193574 -65.560336 -14.602507 -8.561152 -39.615643 4.544729 21.187940 86.136383 0.856113 -4.063446 23.440665 -23.164076 18.548126 -18.061595 13.575456 8.927885 -12.410507 -5.050323 -12.477986 59.181283 -10.793963 15.536651 8.494460 32.541885 -21.131070 -7.922720 4.359035 0.847282 61.785834 3.056063 -9.123550 10.130961 3.378539 -1.200874 -8.984117 3.852796 -23.986447 -1.860466 16.504943 -19.361899 -25.585886 -24.810680 -40.378281 5.678241 -51.180433 -18.819940 15.795168 32.941193 -53.141404 3.256810 -5.670348 -1.999441 39.757694 -10.275889 0.150860 -28.427107 3.904729 43.157505 -10.813681 61.506250 27.543927 21.150684 -155.879519 40.811124 -125.328248 -6.508406 4.805546 -33.238398 8.356547 7.600305 -0.408934 
-0.077617 0.572486 -1.572557 173.105697 18.961704 -65.765775 -14.391794 -8.793660 -39.440640 4.484431 20.914799 86.300585 1.153086 -4.313250 23.562414 -23.940514 17.779672 -17.879969 13.953441 8.503652 -12.320783 -5.138045 -12.330105 59.024136 -10.742961 15.180250 8.473596 31.830375 -20.508323 -7.494155 4.434586 0.894471 62.062794 3.137626 -9.423217 10.427550 3.369112 -1.118759 -8.730018 3.242784 -23.226197 -1.204097 16.405392 -19.196155 -25.230478 -24.195849 -40.454964 5.054407 -51.266087 -18.884487 15.167669 32.458799 -53.789916 4.967140 -4.914316 -1.362129 40.575815 -10.464404 -1.329696 -27.826100 4.410796 42.679020 -10.529120 59.571064 28.196013 18.069469 -151.764829 42.123417 -118.634579 -9.962117 2.632287 -21.830340 10.449254 9.297174 -2.121616 
-0.078548 0.572455 -1.572753 172.689228 18.920953 -65.872758 -14.413216 -9.007268 -39.254973 4.505654 20.755455 86.345252 1.524032 -4.426936 23.698903 -24.859643 17.133975 -17.845177 14.027159 8.027175 -12.295054 -5.241087 -12.322736 58.840787 -10.670705 14.885157 8.484407 31.266254 -19.981752 -6.977670 4.678562 0.756819 62.762389 3.103339 -9.463971 10.827920 3.365350 -0.985593 -8.515897 2.229052 -22.105931 -1.183875 15.770823 -18.803077 -25.340075 -23.731057 -40.432021 4.403641 -51.406990 -19.308147 14.972002 32.430617 -54.699464 6.327233 -3.851366 -1.314858 40.715582 -10.484562 -2.397922 -27.110333 5.533554 42.326106 -9.799211 57.315935 28.748286 14.382086 -142.022473 43.783611 -109.117229 -14.518353 1.218680 -13.905513 12.501176 10.537105 -3.729089 
-0.078985 0.572421 -1.571453 172.316746 18.614439 -66.611532 -14.500595 -8.630023 -38.545717 4.778967 20.493952 86.724018 1.229101 -4.398555 23.952827 -25.618787 16.377094 -17.956499 14.613530 7.090702 -11.431319 -5.296589 -11.787495 58.484286 -10.276293 14.245596 8.650755 29.812317 -18.204538 -6.511012 5.210861 0.235078 64.048812 2.685701 -9.163408 11.541156 3.409402 -0.586280 -8.305837 0.146584 -20.605798 -1.620727 14.668497 -17.778998 -25.777362 -23.462728 -40.774759 3.826748 -51.000794 -19.550519 14.499540 31.983156 -55.979310 7.315027 -1.464632 -1.994825 40.391448 -9.557217 -3.471025 -25.174944 7.311511 43.315433 -8.097154 54.626510 28.979405 11.158021 -128.101707 48.689507 -95.917311 -22.077982 0.996631 -1.800382 14.654903 12.133448 -5.506465 
-0.079906 0.572013 -1.570658 172.259550 18.617120 -66.990520 -15.026183 -8.506246 -38.095293 4.122458 20.474076 86.617016 1.393989 -4.409546 24.493123 -27.316312 16.119188 -19.120166 14.471451 6.123297 -11.100586 -4.963620 -11.048652 58.410252 -9.510334 13.346455 9.292090 27.871913 -15.425723 -5.946880 5.854828 -1.017479 65.219931 1.626235 -8.264031 11.414688 3.131392 -0.171849 -7.744686 -2.471805 -19.646052 -2.411195 12.685397 -16.587801 -25.411651 -23.366013 -40.837826 3.329738 -50.482572 -20.397704 15.068772 29.950074 -56.664009 8.511256 2.465184 -4.071713 38.229501 -7.257784 -3.333617 -21.955043 9.029062 45.276046 -6.259681 52.164167 29.917504 10.164615 -98.117047 55.592667 -70.724882 -31.491467 2.187568 8.097840 15.635506 12.793892 -6.601995 
